<mxfile host="app.diagrams.net" modified="2024-07-10T22:44:45.699Z" agent="Mozilla/5.0 (Windows NT 10.0; Win64; x64) AppleWebKit/537.36 (KHTML, like Gecko) Chrome/126.0.0.0 Safari/537.36" etag="kxldFJLSywYovAjKQSD0" version="24.6.4" type="device">
  <diagram name="PÃ¡gina-1" id="b0cyTZhB00CEEDkcYY8z">
    <mxGraphModel dx="420" dy="209" grid="1" gridSize="10" guides="1" tooltips="1" connect="1" arrows="1" fold="1" page="1" pageScale="1" pageWidth="827" pageHeight="1169" math="0" shadow="0">
      <root>
        <mxCell id="0" />
        <mxCell id="1" parent="0" />
        <mxCell id="TPuxcMAdpPnEX4dGRF7K-1" value="" style="ellipse;whiteSpace=wrap;html=1;aspect=fixed;fillColor=#f8cecc;strokeColor=#b85450;" vertex="1" parent="1">
          <mxGeometry x="370" y="180" width="130" height="130" as="geometry" />
        </mxCell>
        <mxCell id="TPuxcMAdpPnEX4dGRF7K-2" value="" style="shape=xor;whiteSpace=wrap;html=1;rotation=-135;fillColor=#0050ef;strokeColor=#001DBC;fontColor=#ffffff;" vertex="1" parent="1">
          <mxGeometry x="380" y="180" width="12.93" height="32.93" as="geometry" />
        </mxCell>
        <mxCell id="TPuxcMAdpPnEX4dGRF7K-3" value="" style="shape=xor;whiteSpace=wrap;html=1;rotation=-30;fillColor=#60a917;strokeColor=#2D7600;fontColor=#ffffff;" vertex="1" parent="1">
          <mxGeometry x="490" y="200" width="12.93" height="32.93" as="geometry" />
        </mxCell>
        <mxCell id="TPuxcMAdpPnEX4dGRF7K-4" value="" style="shape=xor;whiteSpace=wrap;html=1;rotation=110;fillColor=#d80073;strokeColor=#A50040;fontColor=#ffffff;" vertex="1" parent="1">
          <mxGeometry x="401" y="290" width="12.93" height="32.93" as="geometry" />
        </mxCell>
        <mxCell id="TPuxcMAdpPnEX4dGRF7K-6" value="" style="shape=sumEllipse;perimeter=ellipsePerimeter;whiteSpace=wrap;html=1;backgroundOutline=1;" vertex="1" parent="1">
          <mxGeometry x="392.93" y="235" width="20" height="20" as="geometry" />
        </mxCell>
        <mxCell id="TPuxcMAdpPnEX4dGRF7K-7" value="" style="shape=orEllipse;perimeter=ellipsePerimeter;whiteSpace=wrap;html=1;backgroundOutline=1;" vertex="1" parent="1">
          <mxGeometry x="440" y="215" width="20" height="20" as="geometry" />
        </mxCell>
        <mxCell id="TPuxcMAdpPnEX4dGRF7K-8" value="" style="shape=lineEllipse;perimeter=ellipsePerimeter;whiteSpace=wrap;html=1;backgroundOutline=1;" vertex="1" parent="1">
          <mxGeometry x="440" y="255" width="20" height="20" as="geometry" />
        </mxCell>
        <mxCell id="TPuxcMAdpPnEX4dGRF7K-9" value="" style="endArrow=classic;html=1;rounded=0;exitX=1;exitY=0;exitDx=0;exitDy=0;entryX=0.96;entryY=0.286;entryDx=0;entryDy=0;entryPerimeter=0;" edge="1" parent="1" source="TPuxcMAdpPnEX4dGRF7K-8" target="TPuxcMAdpPnEX4dGRF7K-1">
          <mxGeometry width="50" height="50" relative="1" as="geometry">
            <mxPoint x="390" y="300" as="sourcePoint" />
            <mxPoint x="440" y="250" as="targetPoint" />
          </mxGeometry>
        </mxCell>
        <mxCell id="TPuxcMAdpPnEX4dGRF7K-10" value="" style="endArrow=classic;html=1;rounded=0;exitX=0;exitY=1;exitDx=0;exitDy=0;entryX=0.326;entryY=0.975;entryDx=0;entryDy=0;entryPerimeter=0;" edge="1" parent="1" source="TPuxcMAdpPnEX4dGRF7K-8" target="TPuxcMAdpPnEX4dGRF7K-1">
          <mxGeometry width="50" height="50" relative="1" as="geometry">
            <mxPoint x="467" y="268" as="sourcePoint" />
            <mxPoint x="505" y="227" as="targetPoint" />
          </mxGeometry>
        </mxCell>
        <mxCell id="TPuxcMAdpPnEX4dGRF7K-11" value="" style="endArrow=classic;html=1;rounded=0;exitX=0;exitY=0;exitDx=0;exitDy=0;entryX=0;entryY=0;entryDx=0;entryDy=0;" edge="1" parent="1" source="TPuxcMAdpPnEX4dGRF7K-8" target="TPuxcMAdpPnEX4dGRF7K-1">
          <mxGeometry width="50" height="50" relative="1" as="geometry">
            <mxPoint x="477" y="278" as="sourcePoint" />
            <mxPoint x="515" y="237" as="targetPoint" />
          </mxGeometry>
        </mxCell>
        <mxCell id="TPuxcMAdpPnEX4dGRF7K-12" value="" style="endArrow=classic;html=1;rounded=0;exitX=1;exitY=0;exitDx=0;exitDy=0;entryX=0.96;entryY=0.268;entryDx=0;entryDy=0;entryPerimeter=0;" edge="1" parent="1" source="TPuxcMAdpPnEX4dGRF7K-7" target="TPuxcMAdpPnEX4dGRF7K-1">
          <mxGeometry width="50" height="50" relative="1" as="geometry">
            <mxPoint x="487" y="288" as="sourcePoint" />
            <mxPoint x="525" y="247" as="targetPoint" />
          </mxGeometry>
        </mxCell>
        <mxCell id="TPuxcMAdpPnEX4dGRF7K-13" value="" style="endArrow=classic;html=1;rounded=0;exitX=0;exitY=1;exitDx=0;exitDy=0;entryX=0.308;entryY=0.951;entryDx=0;entryDy=0;entryPerimeter=0;" edge="1" parent="1" source="TPuxcMAdpPnEX4dGRF7K-7" target="TPuxcMAdpPnEX4dGRF7K-1">
          <mxGeometry width="50" height="50" relative="1" as="geometry">
            <mxPoint x="497" y="298" as="sourcePoint" />
            <mxPoint x="535" y="257" as="targetPoint" />
          </mxGeometry>
        </mxCell>
        <mxCell id="TPuxcMAdpPnEX4dGRF7K-14" value="" style="endArrow=classic;html=1;rounded=0;exitX=0;exitY=0.5;exitDx=0;exitDy=0;entryX=0.25;entryY=0.5;entryDx=0;entryDy=0;entryPerimeter=0;" edge="1" parent="1" source="TPuxcMAdpPnEX4dGRF7K-7" target="TPuxcMAdpPnEX4dGRF7K-2">
          <mxGeometry width="50" height="50" relative="1" as="geometry">
            <mxPoint x="507" y="308" as="sourcePoint" />
            <mxPoint x="545" y="267" as="targetPoint" />
          </mxGeometry>
        </mxCell>
        <mxCell id="TPuxcMAdpPnEX4dGRF7K-15" value="" style="endArrow=classic;html=1;rounded=0;exitX=0.5;exitY=1;exitDx=0;exitDy=0;entryX=0.295;entryY=0.945;entryDx=0;entryDy=0;entryPerimeter=0;" edge="1" parent="1" source="TPuxcMAdpPnEX4dGRF7K-6" target="TPuxcMAdpPnEX4dGRF7K-1">
          <mxGeometry width="50" height="50" relative="1" as="geometry">
            <mxPoint x="517" y="318" as="sourcePoint" />
            <mxPoint x="555" y="277" as="targetPoint" />
          </mxGeometry>
        </mxCell>
        <mxCell id="TPuxcMAdpPnEX4dGRF7K-16" value="" style="endArrow=classic;html=1;rounded=0;exitX=1;exitY=0.5;exitDx=0;exitDy=0;entryX=0.978;entryY=0.372;entryDx=0;entryDy=0;entryPerimeter=0;" edge="1" parent="1" source="TPuxcMAdpPnEX4dGRF7K-6" target="TPuxcMAdpPnEX4dGRF7K-1">
          <mxGeometry width="50" height="50" relative="1" as="geometry">
            <mxPoint x="527" y="328" as="sourcePoint" />
            <mxPoint x="565" y="287" as="targetPoint" />
          </mxGeometry>
        </mxCell>
        <mxCell id="TPuxcMAdpPnEX4dGRF7K-17" value="" style="endArrow=classic;html=1;rounded=0;exitX=0;exitY=0;exitDx=0;exitDy=0;entryX=0;entryY=0;entryDx=0;entryDy=0;" edge="1" parent="1" source="TPuxcMAdpPnEX4dGRF7K-6" target="TPuxcMAdpPnEX4dGRF7K-1">
          <mxGeometry width="50" height="50" relative="1" as="geometry">
            <mxPoint x="537" y="338" as="sourcePoint" />
            <mxPoint x="575" y="297" as="targetPoint" />
          </mxGeometry>
        </mxCell>
      </root>
    </mxGraphModel>
  </diagram>
</mxfile>
